<mxfile host="app.diagrams.net" modified="2023-04-26T08:11:43.809Z" agent="Mozilla/5.0 (Windows NT 10.0; Win64; x64) AppleWebKit/537.36 (KHTML, like Gecko) Chrome/112.0.0.0 Safari/537.36" etag="yP1odNO3w590Cc7K2ogM" version="21.2.2" type="onedrive">
  <diagram name="Pagina-1" id="CZSbY0A9xonhzNKlUuH_">
    <mxGraphModel grid="1" page="1" gridSize="10" guides="1" tooltips="1" connect="1" arrows="1" fold="1" pageScale="1" pageWidth="827" pageHeight="1169" math="0" shadow="0">
      <root>
        <mxCell id="0" />
        <mxCell id="1" parent="0" />
        <mxCell id="4q4UmKVWwBe_e4p1ICJz-1" value="" style="rounded=0;whiteSpace=wrap;html=1;" vertex="1" parent="1">
          <mxGeometry x="40" y="680" width="720" height="450" as="geometry" />
        </mxCell>
        <mxCell id="4q4UmKVWwBe_e4p1ICJz-9" style="edgeStyle=orthogonalEdgeStyle;rounded=0;orthogonalLoop=1;jettySize=auto;html=1;exitX=0.5;exitY=1;exitDx=0;exitDy=0;" edge="1" parent="1" source="4q4UmKVWwBe_e4p1ICJz-1" target="4q4UmKVWwBe_e4p1ICJz-1">
          <mxGeometry relative="1" as="geometry" />
        </mxCell>
        <mxCell id="4q4UmKVWwBe_e4p1ICJz-10" value="Codice a barre" style="rounded=1;whiteSpace=wrap;html=1;" vertex="1" parent="1">
          <mxGeometry x="290" y="810" width="210" height="90" as="geometry" />
        </mxCell>
        <mxCell id="4q4UmKVWwBe_e4p1ICJz-14" value="&lt;h1&gt;Nome coupon&lt;/h1&gt;&lt;div&gt;stringa contenente il codice univovo&lt;/div&gt;" style="text;html=1;strokeColor=none;fillColor=none;spacing=5;spacingTop=-20;whiteSpace=wrap;overflow=hidden;rounded=0;" vertex="1" parent="1">
          <mxGeometry x="300" y="970" width="190" height="120" as="geometry" />
        </mxCell>
        <mxCell id="YGyKJ8gPCyt8OExZhuet-1" value="Torna alle offerte" style="text;html=1;strokeColor=none;fillColor=none;align=center;verticalAlign=middle;whiteSpace=wrap;rounded=0;" vertex="1" parent="1">
          <mxGeometry x="110" y="710" width="120" height="30" as="geometry" />
        </mxCell>
        <mxCell id="YGyKJ8gPCyt8OExZhuet-2" value="" style="endArrow=classic;html=1;rounded=0;" edge="1" parent="1">
          <mxGeometry width="50" height="50" relative="1" as="geometry">
            <mxPoint x="120" y="724.5" as="sourcePoint" />
            <mxPoint x="70" y="724.5" as="targetPoint" />
          </mxGeometry>
        </mxCell>
        <mxCell id="YGyKJ8gPCyt8OExZhuet-3" value="Stampa" style="ellipse;whiteSpace=wrap;html=1;aspect=fixed;" vertex="1" parent="1">
          <mxGeometry x="680" y="1060" width="50" height="50" as="geometry" />
        </mxCell>
      </root>
    </mxGraphModel>
  </diagram>
</mxfile>
